<?xml version="1.0" encoding="UTF-8" standalone="no"?>
<!DOCTYPE svg PUBLIC "-//W3C//DTD SVG 1.1//EN"
 "http://www.w3.org/Graphics/SVG/1.1/DTD/svg11.dtd">
<!-- Generated by graphviz version 2.43.0 (0)
 -->
<!-- Title: foo Pages: 1 -->
<svg width="312pt" height="174pt"
 viewBox="0.00 0.00 312.00 174.00" xmlns="http://www.w3.org/2000/svg" xmlns:xlink="http://www.w3.org/1999/xlink">
<g id="graph0" class="graph" transform="scale(1 1) rotate(0) translate(0 174)">
<title>foo</title>
<polygon fill="white" stroke="transparent" points="0,0 0,-174 312,-174 312,0 0,0"/>
<g id="clust1" class="cluster">
<title>cluster_1</title>
<polygon fill="lightgrey" stroke="black" points="91,-91 91,-166 244,-166 244,-91 91,-91"/>
<text text-anchor="middle" x="167.5" y="-150.8" font-family="Times,serif" font-size="14.00">Server 1</text>
</g>
<g id="clust2" class="cluster">
<title>cluster_2</title>
<polygon fill="lightgrey" stroke="black" points="8,-8 8,-83 244,-83 244,-8 8,-8"/>
<text text-anchor="middle" x="126" y="-67.8" font-family="Times,serif" font-size="14.00">Server 2</text>
</g>
<!-- ds01 -->
<g id="node1" class="node">
<title>ds01</title>
<polygon fill="#8ee5ee" stroke="black" points="160,-135 99,-135 99,-99 160,-99 160,-135"/>
<text text-anchor="middle" x="129.5" y="-113.3" font-family="Times,serif" font-size="14.00">data_src</text>
</g>
<!-- stress1 -->
<g id="node2" class="node">
<title>stress1</title>
<polygon fill="#ffcc00" stroke="black" points="236,-135 182,-135 182,-99 236,-99 236,-135"/>
<text text-anchor="middle" x="209" y="-113.3" font-family="Times,serif" font-size="14.00">stress1</text>
</g>
<!-- ds01&#45;&gt;stress1 -->
<g id="edge1" class="edge">
<title>ds01&#45;&gt;stress1</title>
<path fill="none" stroke="black" stroke-dasharray="5,2" d="M160.24,-117C163.85,-117 167.57,-117 171.27,-117"/>
<polygon fill="black" stroke="black" points="171.51,-120.5 181.51,-117 171.51,-113.5 171.51,-120.5"/>
</g>
<!-- merge -->
<g id="node6" class="node">
<title>merge</title>
<polygon fill="#ffcc00" stroke="black" points="312,-93 258,-93 258,-57 312,-57 312,-93"/>
<text text-anchor="middle" x="285" y="-71.3" font-family="Times,serif" font-size="14.00">merge</text>
</g>
<!-- stress1&#45;&gt;merge -->
<g id="edge4" class="edge">
<title>stress1&#45;&gt;merge</title>
<path fill="none" stroke="black" d="M236.3,-102.07C240.44,-99.72 244.78,-97.26 249.08,-94.82"/>
<polygon fill="black" stroke="black" points="250.82,-97.86 257.79,-89.88 247.36,-91.77 250.82,-97.86"/>
</g>
<!-- ds02 -->
<g id="node3" class="node">
<title>ds02</title>
<polygon fill="#8ee5ee" stroke="black" points="77,-52 16,-52 16,-16 77,-16 77,-52"/>
<text text-anchor="middle" x="46.5" y="-30.3" font-family="Times,serif" font-size="14.00">data_src</text>
</g>
<!-- stress2 -->
<g id="node4" class="node">
<title>stress2</title>
<polygon fill="#ffcc00" stroke="black" points="156.5,-52 102.5,-52 102.5,-16 156.5,-16 156.5,-52"/>
<text text-anchor="middle" x="129.5" y="-30.3" font-family="Times,serif" font-size="14.00">stress2</text>
</g>
<!-- ds02&#45;&gt;stress2 -->
<g id="edge2" class="edge">
<title>ds02&#45;&gt;stress2</title>
<path fill="none" stroke="black" stroke-dasharray="5,2" d="M77.2,-34C82.08,-34 87.19,-34 92.2,-34"/>
<polygon fill="black" stroke="black" points="92.28,-37.5 102.28,-34 92.28,-30.5 92.28,-37.5"/>
</g>
<!-- mul -->
<g id="node5" class="node">
<title>mul</title>
<polygon fill="#ffcc00" stroke="black" points="236,-52 182,-52 182,-16 236,-16 236,-52"/>
<text text-anchor="middle" x="209" y="-30.3" font-family="Times,serif" font-size="14.00">mul</text>
</g>
<!-- stress2&#45;&gt;mul -->
<g id="edge3" class="edge">
<title>stress2&#45;&gt;mul</title>
<path fill="none" stroke="black" d="M156.74,-34C161.54,-34 166.62,-34 171.65,-34"/>
<polygon fill="black" stroke="black" points="171.79,-37.5 181.79,-34 171.79,-30.5 171.79,-37.5"/>
</g>
<!-- mul&#45;&gt;merge -->
<g id="edge5" class="edge">
<title>mul&#45;&gt;merge</title>
<path fill="none" stroke="black" d="M236.3,-48.57C240.33,-50.81 244.55,-53.14 248.74,-55.47"/>
<polygon fill="black" stroke="black" points="247.34,-58.69 257.79,-60.48 250.74,-52.57 247.34,-58.69"/>
</g>
</g>
</svg>
