<?xml version="1.0" encoding="UTF-8" standalone="no"?>
<!DOCTYPE svg PUBLIC "-//W3C//DTD SVG 1.1//EN"
 "http://www.w3.org/Graphics/SVG/1.1/DTD/svg11.dtd">
<!-- Generated by graphviz version 2.43.0 (0)
 -->
<!-- Title: foo Pages: 1 -->
<svg width="347pt" height="174pt"
 viewBox="0.00 0.00 347.00 174.00" xmlns="http://www.w3.org/2000/svg" xmlns:xlink="http://www.w3.org/1999/xlink">
<g id="graph0" class="graph" transform="scale(1 1) rotate(0) translate(0 174)">
<title>foo</title>
<polygon fill="white" stroke="transparent" points="0,0 0,-174 347,-174 347,0 0,0"/>
<g id="clust1" class="cluster">
<title>cluster_1</title>
<polygon fill="lightgrey" stroke="black" points="8,-8 8,-83 279,-83 279,-8 8,-8"/>
<text text-anchor="middle" x="143.5" y="-67.8" font-family="Times,serif" font-size="14.00">Server 1</text>
</g>
<g id="clust2" class="cluster">
<title>cluster_2</title>
<polygon fill="lightgrey" stroke="black" points="8,-91 8,-166 279,-166 279,-91 8,-91"/>
<text text-anchor="middle" x="143.5" y="-150.8" font-family="Times,serif" font-size="14.00">Server 2</text>
</g>
<!-- disp01 -->
<g id="node1" class="node">
<title>disp01</title>
<polygon fill="#ffcc00" stroke="black" points="195,-52 99,-52 99,-16 195,-16 195,-52"/>
<text text-anchor="middle" x="147" y="-30.3" font-family="Times,serif" font-size="14.00">displacement</text>
</g>
<!-- norm01 -->
<g id="node3" class="node">
<title>norm01</title>
<polygon fill="#ffcc00" stroke="black" points="271,-52 217,-52 217,-16 271,-16 271,-52"/>
<text text-anchor="middle" x="244" y="-30.3" font-family="Times,serif" font-size="14.00">norm</text>
</g>
<!-- disp01&#45;&gt;norm01 -->
<g id="edge2" class="edge">
<title>disp01&#45;&gt;norm01</title>
<path fill="none" stroke="black" d="M195.22,-34C199.06,-34 202.91,-34 206.65,-34"/>
<polygon fill="black" stroke="black" points="206.87,-37.5 216.87,-34 206.87,-30.5 206.87,-37.5"/>
</g>
<!-- disp02 -->
<g id="node2" class="node">
<title>disp02</title>
<polygon fill="#ffcc00" stroke="black" points="195,-135 99,-135 99,-99 195,-99 195,-135"/>
<text text-anchor="middle" x="147" y="-113.3" font-family="Times,serif" font-size="14.00">displacement</text>
</g>
<!-- norm02 -->
<g id="node4" class="node">
<title>norm02</title>
<polygon fill="#ffcc00" stroke="black" points="271,-135 217,-135 217,-99 271,-99 271,-135"/>
<text text-anchor="middle" x="244" y="-113.3" font-family="Times,serif" font-size="14.00">norm</text>
</g>
<!-- disp02&#45;&gt;norm02 -->
<g id="edge4" class="edge">
<title>disp02&#45;&gt;norm02</title>
<path fill="none" stroke="black" d="M195.22,-117C199.06,-117 202.91,-117 206.65,-117"/>
<polygon fill="black" stroke="black" points="206.87,-120.5 216.87,-117 206.87,-113.5 206.87,-120.5"/>
</g>
<!-- merge -->
<g id="node7" class="node">
<title>merge</title>
<polygon fill="#ffcc00" stroke="black" points="347,-93 293,-93 293,-57 347,-57 347,-93"/>
<text text-anchor="middle" x="320" y="-71.3" font-family="Times,serif" font-size="14.00">merge</text>
</g>
<!-- norm01&#45;&gt;merge -->
<g id="edge5" class="edge">
<title>norm01&#45;&gt;merge</title>
<path fill="none" stroke="black" d="M271.3,-48.57C275.33,-50.81 279.55,-53.14 283.74,-55.47"/>
<polygon fill="black" stroke="black" points="282.34,-58.69 292.79,-60.48 285.74,-52.57 282.34,-58.69"/>
</g>
<!-- norm02&#45;&gt;merge -->
<g id="edge6" class="edge">
<title>norm02&#45;&gt;merge</title>
<path fill="none" stroke="black" d="M271.3,-102.07C275.44,-99.72 279.78,-97.26 284.08,-94.82"/>
<polygon fill="black" stroke="black" points="285.82,-97.86 292.79,-89.88 282.36,-91.77 285.82,-97.86"/>
</g>
<!-- ds01 -->
<g id="node5" class="node">
<title>ds01</title>
<polygon fill="#8ee5ee" stroke="black" points="77,-52 16,-52 16,-16 77,-16 77,-52"/>
<text text-anchor="middle" x="46.5" y="-30.3" font-family="Times,serif" font-size="14.00">data_src</text>
</g>
<!-- ds01&#45;&gt;disp01 -->
<g id="edge1" class="edge">
<title>ds01&#45;&gt;disp01</title>
<path fill="none" stroke="black" stroke-dasharray="5,2" d="M77.05,-34C80.83,-34 84.8,-34 88.84,-34"/>
<polygon fill="black" stroke="black" points="88.97,-37.5 98.97,-34 88.97,-30.5 88.97,-37.5"/>
</g>
<!-- ds02 -->
<g id="node6" class="node">
<title>ds02</title>
<polygon fill="#8ee5ee" stroke="black" points="77,-135 16,-135 16,-99 77,-99 77,-135"/>
<text text-anchor="middle" x="46.5" y="-113.3" font-family="Times,serif" font-size="14.00">data_src</text>
</g>
<!-- ds02&#45;&gt;disp02 -->
<g id="edge3" class="edge">
<title>ds02&#45;&gt;disp02</title>
<path fill="none" stroke="black" stroke-dasharray="5,2" d="M77.05,-117C80.83,-117 84.8,-117 88.84,-117"/>
<polygon fill="black" stroke="black" points="88.97,-120.5 98.97,-117 88.97,-113.5 88.97,-120.5"/>
</g>
</g>
</svg>
