<?xml version="1.0" encoding="UTF-8" standalone="no"?>
<!DOCTYPE svg PUBLIC "-//W3C//DTD SVG 1.1//EN"
 "http://www.w3.org/Graphics/SVG/1.1/DTD/svg11.dtd">
<!-- Generated by graphviz version 2.43.0 (0)
 -->
<!-- Title: foo Pages: 1 -->
<svg width="739pt" height="320pt"
 viewBox="0.00 0.00 739.00 320.00" xmlns="http://www.w3.org/2000/svg" xmlns:xlink="http://www.w3.org/1999/xlink">
<g id="graph0" class="graph" transform="scale(1 1) rotate(0) translate(0 320)">
<title>foo</title>
<polygon fill="white" stroke="transparent" points="0,0 0,-320 739,-320 739,0 0,0"/>
<g id="clust1" class="cluster">
<title>cluster_1</title>
<polygon fill="lightgrey" stroke="black" points="8,-179 8,-312 203,-312 203,-179 8,-179"/>
<text text-anchor="middle" x="105.5" y="-296.8" font-family="Times,serif" font-size="14.00">Server 1</text>
</g>
<g id="clust2" class="cluster">
<title>cluster_2</title>
<polygon fill="lightgrey" stroke="black" points="8,-38 8,-171 203,-171 203,-38 8,-38"/>
<text text-anchor="middle" x="105.5" y="-155.8" font-family="Times,serif" font-size="14.00">Server 2</text>
</g>
<!-- disp01 -->
<g id="node1" class="node">
<title>disp01</title>
<polygon fill="#ffcc00" stroke="black" points="195,-281 99,-281 99,-245 195,-245 195,-281"/>
<text text-anchor="middle" x="147" y="-259.3" font-family="Times,serif" font-size="14.00">displacement</text>
</g>
<!-- merge_fields -->
<g id="node7" class="node">
<title>merge_fields</title>
<polygon fill="#ffcc00" stroke="black" points="308,-210 217,-210 217,-174 308,-174 308,-210"/>
<text text-anchor="middle" x="262.5" y="-188.3" font-family="Times,serif" font-size="14.00">merge_fields</text>
</g>
<!-- disp01&#45;&gt;merge_fields -->
<g id="edge5" class="edge">
<title>disp01&#45;&gt;merge_fields</title>
<path fill="none" stroke="black" d="M176.93,-244.9C191.21,-235.97 208.6,-225.09 223.9,-215.52"/>
<polygon fill="black" stroke="black" points="226,-218.34 232.62,-210.07 222.28,-212.4 226,-218.34"/>
</g>
<!-- disp02 -->
<g id="node2" class="node">
<title>disp02</title>
<polygon fill="#ffcc00" stroke="black" points="195,-140 99,-140 99,-104 195,-104 195,-140"/>
<text text-anchor="middle" x="147" y="-118.3" font-family="Times,serif" font-size="14.00">displacement</text>
</g>
<!-- disp02&#45;&gt;merge_fields -->
<g id="edge7" class="edge">
<title>disp02&#45;&gt;merge_fields</title>
<path fill="none" stroke="black" d="M177.23,-140.03C191.29,-148.7 208.31,-159.2 223.37,-168.49"/>
<polygon fill="black" stroke="black" points="221.63,-171.52 231.98,-173.79 225.3,-165.56 221.63,-171.52"/>
</g>
<!-- mesh01 -->
<g id="node3" class="node">
<title>mesh01</title>
<polygon fill="#ffcc00" stroke="black" points="174,-223 120,-223 120,-187 174,-187 174,-223"/>
<text text-anchor="middle" x="147" y="-201.3" font-family="Times,serif" font-size="14.00">mesh</text>
</g>
<!-- merge_mesh -->
<g id="node8" class="node">
<title>merge_mesh</title>
<polygon fill="#ffcc00" stroke="black" points="308,-152 217,-152 217,-116 308,-116 308,-152"/>
<text text-anchor="middle" x="262.5" y="-130.3" font-family="Times,serif" font-size="14.00">merge_mesh</text>
</g>
<!-- mesh01&#45;&gt;merge_mesh -->
<g id="edge6" class="edge">
<title>mesh01&#45;&gt;merge_mesh</title>
<path fill="none" stroke="black" d="M174.04,-188.71C188.73,-179.52 207.35,-167.88 223.62,-157.69"/>
<polygon fill="black" stroke="black" points="225.77,-160.48 232.39,-152.21 222.05,-154.55 225.77,-160.48"/>
</g>
<!-- mesh02 -->
<g id="node4" class="node">
<title>mesh02</title>
<polygon fill="#ffcc00" stroke="black" points="174,-82 120,-82 120,-46 174,-46 174,-82"/>
<text text-anchor="middle" x="147" y="-60.3" font-family="Times,serif" font-size="14.00">mesh</text>
</g>
<!-- mesh02&#45;&gt;merge_mesh -->
<g id="edge8" class="edge">
<title>mesh02&#45;&gt;merge_mesh</title>
<path fill="none" stroke="black" d="M174.04,-80.06C188.62,-89.05 207.07,-100.43 223.26,-110.41"/>
<polygon fill="black" stroke="black" points="221.63,-113.52 231.98,-115.79 225.31,-107.57 221.63,-113.52"/>
</g>
<!-- ds01 -->
<g id="node5" class="node">
<title>ds01</title>
<polygon fill="#8ee5ee" stroke="black" points="77,-252 16,-252 16,-216 77,-216 77,-252"/>
<text text-anchor="middle" x="46.5" y="-230.3" font-family="Times,serif" font-size="14.00">data_src</text>
</g>
<!-- ds01&#45;&gt;disp01 -->
<g id="edge1" class="edge">
<title>ds01&#45;&gt;disp01</title>
<path fill="none" stroke="black" stroke-dasharray="5,2" d="M77.05,-242.7C80.94,-243.85 85.03,-245.05 89.19,-246.27"/>
<polygon fill="black" stroke="black" points="88.38,-249.69 98.97,-249.15 90.36,-242.97 88.38,-249.69"/>
</g>
<!-- ds01&#45;&gt;mesh01 -->
<g id="edge2" class="edge">
<title>ds01&#45;&gt;mesh01</title>
<path fill="none" stroke="black" stroke-dasharray="5,2" d="M77.05,-225.3C87.47,-222.23 99.28,-218.75 110.16,-215.55"/>
<polygon fill="black" stroke="black" points="111.21,-218.89 119.81,-212.71 109.23,-212.18 111.21,-218.89"/>
</g>
<!-- ds02 -->
<g id="node6" class="node">
<title>ds02</title>
<polygon fill="#8ee5ee" stroke="black" points="77,-111 16,-111 16,-75 77,-75 77,-111"/>
<text text-anchor="middle" x="46.5" y="-89.3" font-family="Times,serif" font-size="14.00">data_src</text>
</g>
<!-- ds02&#45;&gt;disp02 -->
<g id="edge3" class="edge">
<title>ds02&#45;&gt;disp02</title>
<path fill="none" stroke="black" stroke-dasharray="5,2" d="M77.05,-101.7C80.94,-102.85 85.03,-104.05 89.19,-105.27"/>
<polygon fill="black" stroke="black" points="88.38,-108.69 98.97,-108.15 90.36,-101.97 88.38,-108.69"/>
</g>
<!-- ds02&#45;&gt;mesh02 -->
<g id="edge4" class="edge">
<title>ds02&#45;&gt;mesh02</title>
<path fill="none" stroke="black" stroke-dasharray="5,2" d="M77.05,-84.3C87.47,-81.23 99.28,-77.75 110.16,-74.55"/>
<polygon fill="black" stroke="black" points="111.21,-77.89 119.81,-71.71 109.23,-71.18 111.21,-77.89"/>
</g>
<!-- expansion -->
<g id="node14" class="node">
<title>expansion</title>
<polygon fill="#ffcc00" stroke="black" points="638,-163 565,-163 565,-127 638,-127 638,-163"/>
<text text-anchor="middle" x="601.5" y="-141.3" font-family="Times,serif" font-size="14.00">expansion</text>
</g>
<!-- merge_fields&#45;&gt;expansion -->
<g id="edge15" class="edge">
<title>merge_fields&#45;&gt;expansion</title>
<path fill="none" stroke="black" d="M308.22,-185.66C372.72,-176.72 489.81,-160.49 554.83,-151.47"/>
<polygon fill="black" stroke="black" points="555.37,-154.93 564.8,-150.09 554.41,-148 555.37,-154.93"/>
</g>
<!-- response -->
<g id="node12" class="node">
<title>response</title>
<polygon fill="#ffcc00" stroke="black" points="399.5,-137 334.5,-137 334.5,-101 399.5,-101 399.5,-137"/>
<text text-anchor="middle" x="367" y="-115.3" font-family="Times,serif" font-size="14.00">response</text>
</g>
<!-- merge_mesh&#45;&gt;response -->
<g id="edge11" class="edge">
<title>merge_mesh&#45;&gt;response</title>
<path fill="none" stroke="black" d="M308.16,-127.46C313.55,-126.68 319.04,-125.87 324.39,-125.09"/>
<polygon fill="black" stroke="black" points="325.04,-128.53 334.42,-123.62 324.02,-121.61 325.04,-128.53"/>
</g>
<!-- ds03 -->
<g id="node9" class="node">
<title>ds03</title>
<polygon fill="#8ee5ee" stroke="black" points="293,-36 232,-36 232,0 293,0 293,-36"/>
<text text-anchor="middle" x="262.5" y="-14.3" font-family="Times,serif" font-size="14.00">data_src</text>
</g>
<!-- response2 -->
<g id="node10" class="node">
<title>response2</title>
<polygon fill="#ffcc00" stroke="black" points="404,-65 330,-65 330,-29 404,-29 404,-65"/>
<text text-anchor="middle" x="367" y="-43.3" font-family="Times,serif" font-size="14.00">response2</text>
</g>
<!-- ds03&#45;&gt;response2 -->
<g id="edge9" class="edge">
<title>ds03&#45;&gt;response2</title>
<path fill="none" stroke="black" stroke-dasharray="5,2" d="M293.15,-26.39C301.57,-28.77 310.95,-31.42 320.09,-34.01"/>
<polygon fill="black" stroke="black" points="319.3,-37.42 329.87,-36.78 321.2,-30.69 319.3,-37.42"/>
</g>
<!-- merge_use_pass -->
<g id="node13" class="node">
<title>merge_use_pass</title>
<polygon fill="#ffcc00" stroke="black" points="543,-137 426,-137 426,-101 543,-101 543,-137"/>
<text text-anchor="middle" x="484.5" y="-115.3" font-family="Times,serif" font-size="14.00">merge_use_pass</text>
</g>
<!-- response2&#45;&gt;merge_use_pass -->
<g id="edge13" class="edge">
<title>response2&#45;&gt;merge_use_pass</title>
<path fill="none" stroke="black" d="M397.15,-65.17C411.92,-74.38 430.03,-85.67 445.85,-95.53"/>
<polygon fill="black" stroke="black" points="444.03,-98.52 454.36,-100.84 447.73,-92.58 444.03,-98.52"/>
</g>
<!-- ds04 -->
<g id="node11" class="node">
<title>ds04</title>
<polygon fill="#8ee5ee" stroke="black" points="293,-94 232,-94 232,-58 293,-58 293,-94"/>
<text text-anchor="middle" x="262.5" y="-72.3" font-family="Times,serif" font-size="14.00">data_src</text>
</g>
<!-- ds04&#45;&gt;response -->
<g id="edge10" class="edge">
<title>ds04&#45;&gt;response</title>
<path fill="none" stroke="black" stroke-dasharray="5,2" d="M293.15,-88.44C303.02,-92.58 314.19,-97.27 324.77,-101.71"/>
<polygon fill="black" stroke="black" points="323.7,-105.05 334.27,-105.69 326.41,-98.59 323.7,-105.05"/>
</g>
<!-- response&#45;&gt;merge_use_pass -->
<g id="edge12" class="edge">
<title>response&#45;&gt;merge_use_pass</title>
<path fill="none" stroke="black" d="M399.56,-119C404.65,-119 410.09,-119 415.66,-119"/>
<polygon fill="black" stroke="black" points="415.77,-122.5 425.77,-119 415.77,-115.5 415.77,-122.5"/>
</g>
<!-- merge_use_pass&#45;&gt;expansion -->
<g id="edge14" class="edge">
<title>merge_use_pass&#45;&gt;expansion</title>
<path fill="none" stroke="black" d="M543.34,-132.08C547.26,-132.96 551.18,-133.85 555.02,-134.72"/>
<polygon fill="black" stroke="black" points="554.45,-138.18 564.98,-136.97 555.99,-131.35 554.45,-138.18"/>
</g>
<!-- component -->
<g id="node15" class="node">
<title>component</title>
<polygon fill="#ffcc00" stroke="black" points="739,-163 660,-163 660,-127 739,-127 739,-163"/>
<text text-anchor="middle" x="699.5" y="-141.3" font-family="Times,serif" font-size="14.00">component</text>
</g>
<!-- expansion&#45;&gt;component -->
<g id="edge16" class="edge">
<title>expansion&#45;&gt;component</title>
<path fill="none" stroke="black" d="M638.25,-145C641.99,-145 645.83,-145 649.68,-145"/>
<polygon fill="black" stroke="black" points="649.82,-148.5 659.82,-145 649.82,-141.5 649.82,-148.5"/>
</g>
</g>
</svg>
