<?xml version="1.0" encoding="UTF-8" standalone="no"?>
<!DOCTYPE svg PUBLIC "-//W3C//DTD SVG 1.1//EN"
 "http://www.w3.org/Graphics/SVG/1.1/DTD/svg11.dtd">
<!-- Generated by graphviz version 2.40.1 (20161225.0304)
 -->
<!-- Title: foo Pages: 1 -->
<svg width="616pt" height="178pt"
 viewBox="0.00 0.00 616.00 178.00" xmlns="http://www.w3.org/2000/svg" xmlns:xlink="http://www.w3.org/1999/xlink">
<g id="graph0" class="graph" transform="scale(1 1) rotate(0) translate(0 178)">
<title>foo</title>
<polygon fill="#ffffff" stroke="transparent" points="0,0 0,-178 616,-178 616,0 0,0"/>
<g id="clust1" class="cluster">
<title>cluster_1</title>
<polygon fill="#d3d3d3" stroke="#000000" points="8,-8 8,-85 608,-85 608,-8 8,-8"/>
<text text-anchor="middle" x="308" y="-68.4" font-family="Times,serif" font-size="14.00" fill="#000000">Averaging across bodies = Off</text>
</g>
<g id="clust2" class="cluster">
<title>cluster_2</title>
<polygon fill="#d3d3d3" stroke="#000000" points="8,-93 8,-170 608,-170 608,-93 8,-93"/>
<text text-anchor="middle" x="308" y="-153.4" font-family="Times,serif" font-size="14.00" fill="#000000">Averaging across bodies = On</text>
</g>
<!-- stress01 -->
<g id="node1" class="node">
<title>stress01</title>
<polygon fill="#ffcc00" stroke="#000000" points="600,-52 420,-52 420,-16 600,-16 600,-52"/>
<text text-anchor="middle" x="510" y="-29.8" font-family="Times,serif" font-size="14.00" fill="#000000">stress_Z</text>
</g>
<!-- stress02 -->
<g id="node2" class="node">
<title>stress02</title>
<polygon fill="#ffcc00" stroke="#000000" points="398,-137 218,-137 218,-101 398,-101 398,-137"/>
<text text-anchor="middle" x="308" y="-114.8" font-family="Times,serif" font-size="14.00" fill="#000000">stress_Z</text>
</g>
<!-- inv02 -->
<g id="node6" class="node">
<title>inv02</title>
</g>
<!-- stress02&#45;&gt;inv02 -->
<!-- scp01 -->
<g id="node3" class="node">
<title>scp01</title>
<polygon fill="#ffcc00" stroke="#000000" points="398,-52 218,-52 218,-16 398,-16 398,-52"/>
<text text-anchor="middle" x="308" y="-29.8" font-family="Times,serif" font-size="14.00" fill="#000000">split_on_property_type</text>
</g>
<!-- scp01&#45;&gt;stress01 -->
<g id="edge2" class="edge">
<title>scp01&#45;&gt;stress01</title>
<path fill="none" stroke="#000000" d="M398.0708,-34C401.9274,-34 405.8054,-34 409.6821,-34"/>
<polygon fill="#000000" stroke="#000000" points="409.9252,-37.5001 419.9252,-34 409.9251,-30.5001 409.9252,-37.5001"/>
</g>
<!-- ds01 -->
<g id="node4" class="node">
<title>ds01</title>
<polygon fill="#8ee5ee" stroke="#000000" points="196,-52 16,-52 16,-16 196,-16 196,-52"/>
<text text-anchor="middle" x="106" y="-29.8" font-family="Times,serif" font-size="14.00" fill="#000000">data_src</text>
</g>
<!-- ds01&#45;&gt;scp01 -->
<g id="edge1" class="edge">
<title>ds01&#45;&gt;scp01</title>
<path fill="none" stroke="#000000" stroke-dasharray="5,2" d="M196.0708,-34C199.9274,-34 203.8054,-34 207.6821,-34"/>
<polygon fill="#000000" stroke="#000000" points="207.9252,-37.5001 217.9252,-34 207.9251,-30.5001 207.9252,-37.5001"/>
</g>
<!-- ds02 -->
<g id="node5" class="node">
<title>ds02</title>
<polygon fill="#8ee5ee" stroke="#000000" points="196,-137 16,-137 16,-101 196,-101 196,-137"/>
<text text-anchor="middle" x="106" y="-114.8" font-family="Times,serif" font-size="14.00" fill="#000000">data_src</text>
</g>
<!-- ds02&#45;&gt;stress02 -->
<g id="edge3" class="edge">
<title>ds02&#45;&gt;stress02</title>
<path fill="none" stroke="#000000" stroke-dasharray="5,2" d="M196.0708,-119C199.9274,-119 203.8054,-119 207.6821,-119"/>
<polygon fill="#000000" stroke="#000000" points="207.9252,-122.5001 217.9252,-119 207.9251,-115.5001 207.9252,-122.5001"/>
</g>
</g>
</svg>
