<?xml version="1.0" encoding="UTF-8" standalone="no"?>
<!DOCTYPE svg PUBLIC "-//W3C//DTD SVG 1.1//EN"
 "http://www.w3.org/Graphics/SVG/1.1/DTD/svg11.dtd">
<!-- Generated by graphviz version 2.43.0 (0)
 -->
<!-- Title: foo Pages: 1 -->
<svg width="600pt" height="290pt"
 viewBox="0.00 0.00 600.00 290.00" xmlns="http://www.w3.org/2000/svg" xmlns:xlink="http://www.w3.org/1999/xlink">
<g id="graph0" class="graph" transform="scale(1 1) rotate(0) translate(0 290)">
<title>foo</title>
<polygon fill="white" stroke="transparent" points="0,0 0,-290 600,-290 600,0 0,0"/>
<g id="clust1" class="cluster">
<title>cluster_1</title>
<polygon fill="lightgrey" stroke="black" points="8,-149 8,-282 203,-282 203,-149 8,-149"/>
<text text-anchor="middle" x="105.5" y="-266.8" font-family="Times,serif" font-size="14.00">Server 1</text>
</g>
<g id="clust2" class="cluster">
<title>cluster_2</title>
<polygon fill="lightgrey" stroke="black" points="8,-8 8,-141 203,-141 203,-8 8,-8"/>
<text text-anchor="middle" x="105.5" y="-125.8" font-family="Times,serif" font-size="14.00">Server 2</text>
</g>
<!-- disp01 -->
<g id="node1" class="node">
<title>disp01</title>
<polygon fill="#ffcc00" stroke="black" points="195,-251 99,-251 99,-215 195,-215 195,-251"/>
<text text-anchor="middle" x="147" y="-229.3" font-family="Times,serif" font-size="14.00">displacement</text>
</g>
<!-- merge -->
<g id="node7" class="node">
<title>merge</title>
<polygon fill="#ffcc00" stroke="black" points="294,-180 240,-180 240,-144 294,-144 294,-180"/>
<text text-anchor="middle" x="267" y="-158.3" font-family="Times,serif" font-size="14.00">merge</text>
</g>
<!-- disp01&#45;&gt;merge -->
<g id="edge5" class="edge">
<title>disp01&#45;&gt;merge</title>
<path fill="none" stroke="black" d="M178.08,-214.9C194.21,-205.19 214.18,-193.18 231,-183.06"/>
<polygon fill="black" stroke="black" points="233.22,-185.81 239.98,-177.66 229.61,-179.81 233.22,-185.81"/>
</g>
<!-- disp02 -->
<g id="node2" class="node">
<title>disp02</title>
<polygon fill="#ffcc00" stroke="black" points="195,-110 99,-110 99,-74 195,-74 195,-110"/>
<text text-anchor="middle" x="147" y="-88.3" font-family="Times,serif" font-size="14.00">displacement</text>
</g>
<!-- disp02&#45;&gt;merge -->
<g id="edge7" class="edge">
<title>disp02&#45;&gt;merge</title>
<path fill="none" stroke="black" d="M178.39,-110.03C194.41,-119.53 214.13,-131.23 230.81,-141.13"/>
<polygon fill="black" stroke="black" points="229.34,-144.32 239.72,-146.41 232.91,-138.3 229.34,-144.32"/>
</g>
<!-- mesh01 -->
<g id="node3" class="node">
<title>mesh01</title>
<polygon fill="#ffcc00" stroke="black" points="174,-193 120,-193 120,-157 174,-157 174,-193"/>
<text text-anchor="middle" x="147" y="-171.3" font-family="Times,serif" font-size="14.00">mesh</text>
</g>
<!-- merged_mesh -->
<g id="node8" class="node">
<title>merged_mesh</title>
<polygon fill="#ffcc00" stroke="black" points="317,-122 217,-122 217,-86 317,-86 317,-122"/>
<text text-anchor="middle" x="267" y="-100.3" font-family="Times,serif" font-size="14.00">merged_mesh</text>
</g>
<!-- mesh01&#45;&gt;merged_mesh -->
<g id="edge6" class="edge">
<title>mesh01&#45;&gt;merged_mesh</title>
<path fill="none" stroke="black" d="M174.19,-159.24C189.68,-149.92 209.61,-137.93 226.93,-127.51"/>
<polygon fill="black" stroke="black" points="228.95,-130.38 235.72,-122.22 225.34,-124.38 228.95,-130.38"/>
</g>
<!-- mesh02 -->
<g id="node4" class="node">
<title>mesh02</title>
<polygon fill="#ffcc00" stroke="black" points="174,-52 120,-52 120,-16 174,-16 174,-52"/>
<text text-anchor="middle" x="147" y="-30.3" font-family="Times,serif" font-size="14.00">mesh</text>
</g>
<!-- mesh02&#45;&gt;merged_mesh -->
<g id="edge8" class="edge">
<title>mesh02&#45;&gt;merged_mesh</title>
<path fill="none" stroke="black" d="M174.19,-49.54C189.57,-58.66 209.31,-70.37 226.54,-80.59"/>
<polygon fill="black" stroke="black" points="224.9,-83.69 235.29,-85.78 228.48,-77.67 224.9,-83.69"/>
</g>
<!-- ds01 -->
<g id="node5" class="node">
<title>ds01</title>
<polygon fill="#8ee5ee" stroke="black" points="77,-222 16,-222 16,-186 77,-186 77,-222"/>
<text text-anchor="middle" x="46.5" y="-200.3" font-family="Times,serif" font-size="14.00">data_src</text>
</g>
<!-- ds01&#45;&gt;disp01 -->
<g id="edge1" class="edge">
<title>ds01&#45;&gt;disp01</title>
<path fill="none" stroke="black" stroke-dasharray="5,2" d="M77.05,-212.7C80.94,-213.85 85.03,-215.05 89.19,-216.27"/>
<polygon fill="black" stroke="black" points="88.38,-219.69 98.97,-219.15 90.36,-212.97 88.38,-219.69"/>
</g>
<!-- ds01&#45;&gt;mesh01 -->
<g id="edge2" class="edge">
<title>ds01&#45;&gt;mesh01</title>
<path fill="none" stroke="black" stroke-dasharray="5,2" d="M77.05,-195.3C87.47,-192.23 99.28,-188.75 110.16,-185.55"/>
<polygon fill="black" stroke="black" points="111.21,-188.89 119.81,-182.71 109.23,-182.18 111.21,-188.89"/>
</g>
<!-- ds02 -->
<g id="node6" class="node">
<title>ds02</title>
<polygon fill="#8ee5ee" stroke="black" points="77,-81 16,-81 16,-45 77,-45 77,-81"/>
<text text-anchor="middle" x="46.5" y="-59.3" font-family="Times,serif" font-size="14.00">data_src</text>
</g>
<!-- ds02&#45;&gt;disp02 -->
<g id="edge3" class="edge">
<title>ds02&#45;&gt;disp02</title>
<path fill="none" stroke="black" stroke-dasharray="5,2" d="M77.05,-71.7C80.94,-72.85 85.03,-74.05 89.19,-75.27"/>
<polygon fill="black" stroke="black" points="88.38,-78.69 98.97,-78.15 90.36,-71.97 88.38,-78.69"/>
</g>
<!-- ds02&#45;&gt;mesh02 -->
<g id="edge4" class="edge">
<title>ds02&#45;&gt;mesh02</title>
<path fill="none" stroke="black" stroke-dasharray="5,2" d="M77.05,-54.3C87.47,-51.23 99.28,-47.75 110.16,-44.55"/>
<polygon fill="black" stroke="black" points="111.21,-47.89 119.81,-41.71 109.23,-41.18 111.21,-47.89"/>
</g>
<!-- expansion -->
<g id="node10" class="node">
<title>expansion</title>
<polygon fill="#ffcc00" stroke="black" points="499,-151 426,-151 426,-115 499,-115 499,-151"/>
<text text-anchor="middle" x="462.5" y="-129.3" font-family="Times,serif" font-size="14.00">expansion</text>
</g>
<!-- merge&#45;&gt;expansion -->
<g id="edge11" class="edge">
<title>merge&#45;&gt;expansion</title>
<path fill="none" stroke="black" d="M294.18,-157.97C325.54,-153.32 377.65,-145.59 415.6,-139.96"/>
<polygon fill="black" stroke="black" points="416.51,-143.36 425.89,-138.43 415.49,-136.44 416.51,-143.36"/>
</g>
<!-- response -->
<g id="node9" class="node">
<title>response</title>
<polygon fill="#ffcc00" stroke="black" points="404,-125 339,-125 339,-89 404,-89 404,-125"/>
<text text-anchor="middle" x="371.5" y="-103.3" font-family="Times,serif" font-size="14.00">response</text>
</g>
<!-- merged_mesh&#45;&gt;response -->
<g id="edge9" class="edge">
<title>merged_mesh&#45;&gt;response</title>
<path fill="none" stroke="black" d="M317.15,-105.44C321.08,-105.55 325.03,-105.67 328.9,-105.78"/>
<polygon fill="black" stroke="black" points="328.8,-109.28 338.9,-106.08 329.01,-102.28 328.8,-109.28"/>
</g>
<!-- response&#45;&gt;expansion -->
<g id="edge10" class="edge">
<title>response&#45;&gt;expansion</title>
<path fill="none" stroke="black" d="M404.13,-116.24C407.95,-117.36 411.92,-118.52 415.89,-119.68"/>
<polygon fill="black" stroke="black" points="415.15,-123.11 425.73,-122.55 417.11,-116.39 415.15,-123.11"/>
</g>
<!-- component -->
<g id="node11" class="node">
<title>component</title>
<polygon fill="#ffcc00" stroke="black" points="600,-151 521,-151 521,-115 600,-115 600,-151"/>
<text text-anchor="middle" x="560.5" y="-129.3" font-family="Times,serif" font-size="14.00">component</text>
</g>
<!-- expansion&#45;&gt;component -->
<g id="edge12" class="edge">
<title>expansion&#45;&gt;component</title>
<path fill="none" stroke="black" d="M499.25,-133C502.99,-133 506.83,-133 510.68,-133"/>
<polygon fill="black" stroke="black" points="510.82,-136.5 520.82,-133 510.82,-129.5 510.82,-136.5"/>
</g>
</g>
</svg>
