<?xml version="1.0" encoding="UTF-8" standalone="no"?>
<!DOCTYPE svg PUBLIC "-//W3C//DTD SVG 1.1//EN"
 "http://www.w3.org/Graphics/SVG/1.1/DTD/svg11.dtd">
<!-- Generated by graphviz version 2.43.0 (0)
 -->
<!-- Title: foo Pages: 1 -->
<svg width="600pt" height="290pt"
 viewBox="0.00 0.00 600.00 290.00" xmlns="http://www.w3.org/2000/svg" xmlns:xlink="http://www.w3.org/1999/xlink">
<g id="graph0" class="graph" transform="scale(1 1) rotate(0) translate(0 290)">
<title>foo</title>
<polygon fill="white" stroke="transparent" points="0,0 0,-290 600,-290 600,0 0,0"/>
<g id="clust1" class="cluster">
<title>cluster_1</title>
<polygon fill="lightgrey" stroke="black" points="8,-149 8,-282 203,-282 203,-149 8,-149"/>
<text text-anchor="middle" x="105.5" y="-266.8" font-family="Times,serif" font-size="14.00">Server 1</text>
</g>
<g id="clust2" class="cluster">
<title>cluster_2</title>
<polygon fill="lightgrey" stroke="black" points="8,-8 8,-141 203,-141 203,-8 8,-8"/>
<text text-anchor="middle" x="105.5" y="-125.8" font-family="Times,serif" font-size="14.00">Server 2</text>
</g>
<!-- disp01 -->
<g id="node1" class="node">
<title>disp01</title>
<polygon fill="#ffcc00" stroke="black" points="195,-193 99,-193 99,-157 195,-157 195,-193"/>
<text text-anchor="middle" x="147" y="-171.3" font-family="Times,serif" font-size="14.00">displacement</text>
</g>
<!-- merge_fields -->
<g id="node7" class="node">
<title>merge_fields</title>
<polygon fill="#ffcc00" stroke="black" points="312.5,-93 221.5,-93 221.5,-57 312.5,-57 312.5,-93"/>
<text text-anchor="middle" x="267" y="-71.3" font-family="Times,serif" font-size="14.00">merge_fields</text>
</g>
<!-- disp01&#45;&gt;merge_fields -->
<g id="edge5" class="edge">
<title>disp01&#45;&gt;merge_fields</title>
<path fill="none" stroke="black" d="M169.37,-156.89C188.21,-140.92 215.85,-117.5 236.75,-99.79"/>
<polygon fill="black" stroke="black" points="239.03,-102.45 244.39,-93.31 234.5,-97.11 239.03,-102.45"/>
</g>
<!-- disp02 -->
<g id="node2" class="node">
<title>disp02</title>
<polygon fill="#ffcc00" stroke="black" points="195,-52 99,-52 99,-16 195,-16 195,-52"/>
<text text-anchor="middle" x="147" y="-30.3" font-family="Times,serif" font-size="14.00">displacement</text>
</g>
<!-- disp02&#45;&gt;merge_fields -->
<g id="edge7" class="edge">
<title>disp02&#45;&gt;merge_fields</title>
<path fill="none" stroke="black" d="M195.32,-50.44C200.69,-52.31 206.19,-54.22 211.64,-56.11"/>
<polygon fill="black" stroke="black" points="210.76,-59.51 221.36,-59.49 213.06,-52.9 210.76,-59.51"/>
</g>
<!-- mesh01 -->
<g id="node3" class="node">
<title>mesh01</title>
<polygon fill="#ffcc00" stroke="black" points="174,-251 120,-251 120,-215 174,-215 174,-251"/>
<text text-anchor="middle" x="147" y="-229.3" font-family="Times,serif" font-size="14.00">mesh</text>
</g>
<!-- merged_mesh -->
<g id="node8" class="node">
<title>merged_mesh</title>
<polygon fill="#ffcc00" stroke="black" points="317,-209 217,-209 217,-173 317,-173 317,-209"/>
<text text-anchor="middle" x="267" y="-187.3" font-family="Times,serif" font-size="14.00">merged_mesh</text>
</g>
<!-- mesh01&#45;&gt;merged_mesh -->
<g id="edge6" class="edge">
<title>mesh01&#45;&gt;merged_mesh</title>
<path fill="none" stroke="black" d="M174.19,-223.68C183.95,-220.2 195.47,-216.11 206.98,-212.01"/>
<polygon fill="black" stroke="black" points="208.37,-215.23 216.62,-208.58 206.03,-208.63 208.37,-215.23"/>
</g>
<!-- mesh02 -->
<g id="node4" class="node">
<title>mesh02</title>
<polygon fill="#ffcc00" stroke="black" points="174,-110 120,-110 120,-74 174,-74 174,-110"/>
<text text-anchor="middle" x="147" y="-88.3" font-family="Times,serif" font-size="14.00">mesh</text>
</g>
<!-- mesh02&#45;&gt;merged_mesh -->
<g id="edge8" class="edge">
<title>mesh02&#45;&gt;merged_mesh</title>
<path fill="none" stroke="black" d="M169.64,-110.16C188.44,-125.93 215.83,-148.91 236.61,-166.34"/>
<polygon fill="black" stroke="black" points="234.58,-169.21 244.49,-172.96 239.08,-163.85 234.58,-169.21"/>
</g>
<!-- ds01 -->
<g id="node5" class="node">
<title>ds01</title>
<polygon fill="#8ee5ee" stroke="black" points="77,-222 16,-222 16,-186 77,-186 77,-222"/>
<text text-anchor="middle" x="46.5" y="-200.3" font-family="Times,serif" font-size="14.00">data_src</text>
</g>
<!-- ds01&#45;&gt;disp01 -->
<g id="edge1" class="edge">
<title>ds01&#45;&gt;disp01</title>
<path fill="none" stroke="black" stroke-dasharray="5,2" d="M77.05,-195.3C80.94,-194.15 85.03,-192.95 89.19,-191.73"/>
<polygon fill="black" stroke="black" points="90.36,-195.03 98.97,-188.85 88.38,-188.31 90.36,-195.03"/>
</g>
<!-- ds01&#45;&gt;mesh01 -->
<g id="edge2" class="edge">
<title>ds01&#45;&gt;mesh01</title>
<path fill="none" stroke="black" stroke-dasharray="5,2" d="M77.05,-212.7C87.47,-215.77 99.28,-219.25 110.16,-222.45"/>
<polygon fill="black" stroke="black" points="109.23,-225.82 119.81,-225.29 111.21,-219.11 109.23,-225.82"/>
</g>
<!-- ds02 -->
<g id="node6" class="node">
<title>ds02</title>
<polygon fill="#8ee5ee" stroke="black" points="77,-81 16,-81 16,-45 77,-45 77,-81"/>
<text text-anchor="middle" x="46.5" y="-59.3" font-family="Times,serif" font-size="14.00">data_src</text>
</g>
<!-- ds02&#45;&gt;disp02 -->
<g id="edge3" class="edge">
<title>ds02&#45;&gt;disp02</title>
<path fill="none" stroke="black" stroke-dasharray="5,2" d="M77.05,-54.3C80.94,-53.15 85.03,-51.95 89.19,-50.73"/>
<polygon fill="black" stroke="black" points="90.36,-54.03 98.97,-47.85 88.38,-47.31 90.36,-54.03"/>
</g>
<!-- ds02&#45;&gt;mesh02 -->
<g id="edge4" class="edge">
<title>ds02&#45;&gt;mesh02</title>
<path fill="none" stroke="black" stroke-dasharray="5,2" d="M77.05,-71.7C87.47,-74.77 99.28,-78.25 110.16,-81.45"/>
<polygon fill="black" stroke="black" points="109.23,-84.82 119.81,-84.29 111.21,-78.11 109.23,-84.82"/>
</g>
<!-- expansion -->
<g id="node11" class="node">
<title>expansion</title>
<polygon fill="#ffcc00" stroke="black" points="499,-122 426,-122 426,-86 499,-86 499,-122"/>
<text text-anchor="middle" x="462.5" y="-100.3" font-family="Times,serif" font-size="14.00">expansion</text>
</g>
<!-- merge_fields&#45;&gt;expansion -->
<g id="edge12" class="edge">
<title>merge_fields&#45;&gt;expansion</title>
<path fill="none" stroke="black" d="M312.84,-81.8C343.76,-86.39 384.45,-92.42 415.6,-97.04"/>
<polygon fill="black" stroke="black" points="415.36,-100.55 425.77,-98.55 416.39,-93.62 415.36,-100.55"/>
</g>
<!-- response -->
<g id="node10" class="node">
<title>response</title>
<polygon fill="#ffcc00" stroke="black" points="404,-151 339,-151 339,-115 404,-115 404,-151"/>
<text text-anchor="middle" x="371.5" y="-129.3" font-family="Times,serif" font-size="14.00">response</text>
</g>
<!-- merged_mesh&#45;&gt;response -->
<g id="edge10" class="edge">
<title>merged_mesh&#45;&gt;response</title>
<path fill="none" stroke="black" d="M299.87,-172.97C309.32,-167.62 319.8,-161.69 329.73,-156.07"/>
<polygon fill="black" stroke="black" points="331.67,-158.99 338.65,-151.02 328.22,-152.9 331.67,-158.99"/>
</g>
<!-- ds03 -->
<g id="node9" class="node">
<title>ds03</title>
<polygon fill="#8ee5ee" stroke="black" points="297.5,-151 236.5,-151 236.5,-115 297.5,-115 297.5,-151"/>
<text text-anchor="middle" x="267" y="-129.3" font-family="Times,serif" font-size="14.00">data_src</text>
</g>
<!-- ds03&#45;&gt;response -->
<g id="edge9" class="edge">
<title>ds03&#45;&gt;response</title>
<path fill="none" stroke="black" stroke-dasharray="5,2" d="M297.65,-133C307.31,-133 318.24,-133 328.63,-133"/>
<polygon fill="black" stroke="black" points="328.77,-136.5 338.77,-133 328.77,-129.5 328.77,-136.5"/>
</g>
<!-- response&#45;&gt;expansion -->
<g id="edge11" class="edge">
<title>response&#45;&gt;expansion</title>
<path fill="none" stroke="black" d="M404.13,-122.69C407.95,-121.45 411.92,-120.16 415.89,-118.86"/>
<polygon fill="black" stroke="black" points="417.31,-122.08 425.73,-115.66 415.14,-115.43 417.31,-122.08"/>
</g>
<!-- component -->
<g id="node12" class="node">
<title>component</title>
<polygon fill="#ffcc00" stroke="black" points="600,-122 521,-122 521,-86 600,-86 600,-122"/>
<text text-anchor="middle" x="560.5" y="-100.3" font-family="Times,serif" font-size="14.00">component</text>
</g>
<!-- expansion&#45;&gt;component -->
<g id="edge13" class="edge">
<title>expansion&#45;&gt;component</title>
<path fill="none" stroke="black" d="M499.25,-104C502.99,-104 506.83,-104 510.68,-104"/>
<polygon fill="black" stroke="black" points="510.82,-107.5 520.82,-104 510.82,-100.5 510.82,-107.5"/>
</g>
</g>
</svg>
