<?xml version="1.0" encoding="UTF-8" standalone="no"?>
<!DOCTYPE svg PUBLIC "-//W3C//DTD SVG 1.1//EN"
 "http://www.w3.org/Graphics/SVG/1.1/DTD/svg11.dtd">
<!-- Generated by graphviz version 2.43.0 (0)
 -->
<!-- Title: foo Pages: 1 -->
<svg width="739pt" height="290pt"
 viewBox="0.00 0.00 739.00 290.00" xmlns="http://www.w3.org/2000/svg" xmlns:xlink="http://www.w3.org/1999/xlink">
<g id="graph0" class="graph" transform="scale(1 1) rotate(0) translate(0 290)">
<title>foo</title>
<polygon fill="white" stroke="transparent" points="0,0 0,-290 739,-290 739,0 0,0"/>
<g id="clust1" class="cluster">
<title>cluster_1</title>
<polygon fill="lightgrey" stroke="black" points="8,-149 8,-282 203,-282 203,-149 8,-149"/>
<text text-anchor="middle" x="105.5" y="-266.8" font-family="Times,serif" font-size="14.00">Server 1</text>
</g>
<g id="clust2" class="cluster">
<title>cluster_2</title>
<polygon fill="lightgrey" stroke="black" points="8,-8 8,-141 203,-141 203,-8 8,-8"/>
<text text-anchor="middle" x="105.5" y="-125.8" font-family="Times,serif" font-size="14.00">Server 2</text>
</g>
<!-- disp01 -->
<g id="node1" class="node">
<title>disp01</title>
<polygon fill="#ffcc00" stroke="black" points="195,-251 99,-251 99,-215 195,-215 195,-251"/>
<text text-anchor="middle" x="147" y="-229.3" font-family="Times,serif" font-size="14.00">displacement</text>
</g>
<!-- merge_fields -->
<g id="node7" class="node">
<title>merge_fields</title>
<polygon fill="#ffcc00" stroke="black" points="308,-180 217,-180 217,-144 308,-144 308,-180"/>
<text text-anchor="middle" x="262.5" y="-158.3" font-family="Times,serif" font-size="14.00">merge_fields</text>
</g>
<!-- disp01&#45;&gt;merge_fields -->
<g id="edge5" class="edge">
<title>disp01&#45;&gt;merge_fields</title>
<path fill="none" stroke="black" d="M176.93,-214.9C191.21,-205.97 208.6,-195.09 223.9,-185.52"/>
<polygon fill="black" stroke="black" points="226,-188.34 232.62,-180.07 222.28,-182.4 226,-188.34"/>
</g>
<!-- disp02 -->
<g id="node2" class="node">
<title>disp02</title>
<polygon fill="#ffcc00" stroke="black" points="195,-110 99,-110 99,-74 195,-74 195,-110"/>
<text text-anchor="middle" x="147" y="-88.3" font-family="Times,serif" font-size="14.00">displacement</text>
</g>
<!-- disp02&#45;&gt;merge_fields -->
<g id="edge7" class="edge">
<title>disp02&#45;&gt;merge_fields</title>
<path fill="none" stroke="black" d="M177.23,-110.03C191.29,-118.7 208.31,-129.2 223.37,-138.49"/>
<polygon fill="black" stroke="black" points="221.63,-141.52 231.98,-143.79 225.3,-135.56 221.63,-141.52"/>
</g>
<!-- mesh01 -->
<g id="node3" class="node">
<title>mesh01</title>
<polygon fill="#ffcc00" stroke="black" points="174,-193 120,-193 120,-157 174,-157 174,-193"/>
<text text-anchor="middle" x="147" y="-171.3" font-family="Times,serif" font-size="14.00">mesh</text>
</g>
<!-- merge_mesh -->
<g id="node8" class="node">
<title>merge_mesh</title>
<polygon fill="#ffcc00" stroke="black" points="308,-122 217,-122 217,-86 308,-86 308,-122"/>
<text text-anchor="middle" x="262.5" y="-100.3" font-family="Times,serif" font-size="14.00">merge_mesh</text>
</g>
<!-- mesh01&#45;&gt;merge_mesh -->
<g id="edge6" class="edge">
<title>mesh01&#45;&gt;merge_mesh</title>
<path fill="none" stroke="black" d="M174.04,-158.71C188.73,-149.52 207.35,-137.88 223.62,-127.69"/>
<polygon fill="black" stroke="black" points="225.77,-130.48 232.39,-122.21 222.05,-124.55 225.77,-130.48"/>
</g>
<!-- mesh02 -->
<g id="node4" class="node">
<title>mesh02</title>
<polygon fill="#ffcc00" stroke="black" points="174,-52 120,-52 120,-16 174,-16 174,-52"/>
<text text-anchor="middle" x="147" y="-30.3" font-family="Times,serif" font-size="14.00">mesh</text>
</g>
<!-- mesh02&#45;&gt;merge_mesh -->
<g id="edge8" class="edge">
<title>mesh02&#45;&gt;merge_mesh</title>
<path fill="none" stroke="black" d="M174.04,-50.06C188.62,-59.05 207.07,-70.43 223.26,-80.41"/>
<polygon fill="black" stroke="black" points="221.63,-83.52 231.98,-85.79 225.31,-77.57 221.63,-83.52"/>
</g>
<!-- ds01 -->
<g id="node5" class="node">
<title>ds01</title>
<polygon fill="#8ee5ee" stroke="black" points="77,-222 16,-222 16,-186 77,-186 77,-222"/>
<text text-anchor="middle" x="46.5" y="-200.3" font-family="Times,serif" font-size="14.00">data_src</text>
</g>
<!-- ds01&#45;&gt;disp01 -->
<g id="edge1" class="edge">
<title>ds01&#45;&gt;disp01</title>
<path fill="none" stroke="black" stroke-dasharray="5,2" d="M77.05,-212.7C80.94,-213.85 85.03,-215.05 89.19,-216.27"/>
<polygon fill="black" stroke="black" points="88.38,-219.69 98.97,-219.15 90.36,-212.97 88.38,-219.69"/>
</g>
<!-- ds01&#45;&gt;mesh01 -->
<g id="edge2" class="edge">
<title>ds01&#45;&gt;mesh01</title>
<path fill="none" stroke="black" stroke-dasharray="5,2" d="M77.05,-195.3C87.47,-192.23 99.28,-188.75 110.16,-185.55"/>
<polygon fill="black" stroke="black" points="111.21,-188.89 119.81,-182.71 109.23,-182.18 111.21,-188.89"/>
</g>
<!-- ds02 -->
<g id="node6" class="node">
<title>ds02</title>
<polygon fill="#8ee5ee" stroke="black" points="77,-81 16,-81 16,-45 77,-45 77,-81"/>
<text text-anchor="middle" x="46.5" y="-59.3" font-family="Times,serif" font-size="14.00">data_src</text>
</g>
<!-- ds02&#45;&gt;disp02 -->
<g id="edge3" class="edge">
<title>ds02&#45;&gt;disp02</title>
<path fill="none" stroke="black" stroke-dasharray="5,2" d="M77.05,-71.7C80.94,-72.85 85.03,-74.05 89.19,-75.27"/>
<polygon fill="black" stroke="black" points="88.38,-78.69 98.97,-78.15 90.36,-71.97 88.38,-78.69"/>
</g>
<!-- ds02&#45;&gt;mesh02 -->
<g id="edge4" class="edge">
<title>ds02&#45;&gt;mesh02</title>
<path fill="none" stroke="black" stroke-dasharray="5,2" d="M77.05,-54.3C87.47,-51.23 99.28,-47.75 110.16,-44.55"/>
<polygon fill="black" stroke="black" points="111.21,-47.89 119.81,-41.71 109.23,-41.18 111.21,-47.89"/>
</g>
<!-- expansion -->
<g id="node13" class="node">
<title>expansion</title>
<polygon fill="#ffcc00" stroke="black" points="638,-148 565,-148 565,-112 638,-112 638,-148"/>
<text text-anchor="middle" x="601.5" y="-126.3" font-family="Times,serif" font-size="14.00">expansion</text>
</g>
<!-- merge_fields&#45;&gt;expansion -->
<g id="edge14" class="edge">
<title>merge_fields&#45;&gt;expansion</title>
<path fill="none" stroke="black" d="M308.22,-157.68C372.72,-151.6 489.81,-140.54 554.83,-134.41"/>
<polygon fill="black" stroke="black" points="555.17,-137.89 564.8,-133.46 554.51,-130.92 555.17,-137.89"/>
</g>
<!-- response -->
<g id="node11" class="node">
<title>response</title>
<polygon fill="#ffcc00" stroke="black" points="399.5,-122 334.5,-122 334.5,-86 399.5,-86 399.5,-122"/>
<text text-anchor="middle" x="367" y="-100.3" font-family="Times,serif" font-size="14.00">response</text>
</g>
<!-- merge_mesh&#45;&gt;response -->
<g id="edge10" class="edge">
<title>merge_mesh&#45;&gt;response</title>
<path fill="none" stroke="black" d="M308.16,-104C313.55,-104 319.04,-104 324.39,-104"/>
<polygon fill="black" stroke="black" points="324.42,-107.5 334.42,-104 324.42,-100.5 324.42,-107.5"/>
</g>
<!-- ds03 -->
<g id="node9" class="node">
<title>ds03</title>
<polygon fill="#8ee5ee" stroke="black" points="293,-64 232,-64 232,-28 293,-28 293,-64"/>
<text text-anchor="middle" x="262.5" y="-42.3" font-family="Times,serif" font-size="14.00">data_src</text>
</g>
<!-- response2 -->
<g id="node10" class="node">
<title>response2</title>
<polygon fill="#ffcc00" stroke="black" points="404,-64 330,-64 330,-28 404,-28 404,-64"/>
<text text-anchor="middle" x="367" y="-42.3" font-family="Times,serif" font-size="14.00">response2</text>
</g>
<!-- ds03&#45;&gt;response2 -->
<g id="edge9" class="edge">
<title>ds03&#45;&gt;response2</title>
<path fill="none" stroke="black" stroke-dasharray="5,2" d="M293.15,-46C301.48,-46 310.75,-46 319.8,-46"/>
<polygon fill="black" stroke="black" points="319.87,-49.5 329.87,-46 319.87,-42.5 319.87,-49.5"/>
</g>
<!-- merge_use_pass -->
<g id="node12" class="node">
<title>merge_use_pass</title>
<polygon fill="#ffcc00" stroke="black" points="543,-122 426,-122 426,-86 543,-86 543,-122"/>
<text text-anchor="middle" x="484.5" y="-100.3" font-family="Times,serif" font-size="14.00">merge_use_pass</text>
</g>
<!-- response2&#45;&gt;merge_use_pass -->
<g id="edge12" class="edge">
<title>response2&#45;&gt;merge_use_pass</title>
<path fill="none" stroke="black" d="M403.91,-64.03C414.88,-69.54 427.09,-75.67 438.58,-81.44"/>
<polygon fill="black" stroke="black" points="437.1,-84.62 447.61,-85.98 440.24,-78.36 437.1,-84.62"/>
</g>
<!-- response&#45;&gt;merge_use_pass -->
<g id="edge11" class="edge">
<title>response&#45;&gt;merge_use_pass</title>
<path fill="none" stroke="black" d="M399.56,-104C404.65,-104 410.09,-104 415.66,-104"/>
<polygon fill="black" stroke="black" points="415.77,-107.5 425.77,-104 415.77,-100.5 415.77,-107.5"/>
</g>
<!-- merge_use_pass&#45;&gt;expansion -->
<g id="edge13" class="edge">
<title>merge_use_pass&#45;&gt;expansion</title>
<path fill="none" stroke="black" d="M543.34,-117.08C547.26,-117.96 551.18,-118.85 555.02,-119.72"/>
<polygon fill="black" stroke="black" points="554.45,-123.18 564.98,-121.97 555.99,-116.35 554.45,-123.18"/>
</g>
<!-- component -->
<g id="node14" class="node">
<title>component</title>
<polygon fill="#ffcc00" stroke="black" points="739,-148 660,-148 660,-112 739,-112 739,-148"/>
<text text-anchor="middle" x="699.5" y="-126.3" font-family="Times,serif" font-size="14.00">component</text>
</g>
<!-- expansion&#45;&gt;component -->
<g id="edge15" class="edge">
<title>expansion&#45;&gt;component</title>
<path fill="none" stroke="black" d="M638.25,-130C641.99,-130 645.83,-130 649.68,-130"/>
<polygon fill="black" stroke="black" points="649.82,-133.5 659.82,-130 649.82,-126.5 649.82,-133.5"/>
</g>
</g>
</svg>
